<svg xmlns="http://www.w3.org/2000/svg" width="293.729" height="293.732" viewBox="0 0 293.729 293.732">
    <defs>
        <style>
            .cls-1,.cls-2{fill:#4267b2;fill-rule:evenodd}.cls-2{fill:#fefefe}
        </style>
    </defs>
    <g id="Grupo_189" data-name="Grupo 189" transform="translate(-13358.724 -6398.5)">
        <path id="Caminho_1108" d="M25566.662 9850a146.866 146.866 0 1 1-146.859 146.866A146.866 146.866 0 0 1 25566.662 9850z" class="cls-1" data-name="Caminho 1108" transform="translate(-12061.079 -3451.5)"/>
        <path id="Caminho_1109" d="M27788.672 12139.3a79.624 79.624 0 1 1 0 159.247h-73.137a2.691 2.691 0 0 1-1.9-4.586l16.875-16.872a2.676 2.676 0 0 0 .066-3.73 79.621 79.621 0 0 1 58.1-134.059z" class="cls-2" data-name="Caminho 1109" transform="translate(-14283.057 -5673.57)"/>
        <g id="Hello_Ticket_-_Material" data-name="Hello Ticket - Material" transform="translate(13446.516 6524.15)">
            <path id="Caminho_1771" d="M1178.425 799.664a8.414 8.414 0 0 0-6.157 14.167.285.285 0 0 1 0 .394l-1.786 1.781a.274.274 0 0 0-.057.311.269.269 0 0 0 .259.176h7.731a8.415 8.415 0 1 0 0-16.829zm0-7.1a15.535 15.535 0 1 1-15.535 15.535 15.535 15.535 0 0 1 15.535-15.539z" class="cls-1" data-name="Caminho 1771" transform="translate(-1076.468 -781.509)"/>
            <path id="Caminho_1772" d="M1128.847 809.755a3.557 3.557 0 0 1-7.11 0v-34.844a3.557 3.557 0 1 1 7.11 0z" class="cls-1" data-name="Caminho 1772" transform="translate(-1056.624 -771.219)"/>
            <path id="Caminho_1773" d="M1149.435 809.886a3.552 3.552 0 0 1-7.1 0v-34.844a3.552 3.552 0 0 1 7.1 0z" class="cls-1" data-name="Caminho 1773" transform="translate(-1066.555 -771.349)"/>
            <path id="Caminho_1774" d="M1003.107 785.6a11.7 11.7 0 0 1 19.869 8.378v15.782a3.557 3.557 0 0 1-7.11 0v-14.032a6.38 6.38 0 0 0-12.759 0v14.028a3.557 3.557 0 0 1-7.11 0v-34.845a3.557 3.557 0 1 1 7.11 0z" class="cls-1" data-name="Caminho 1774" transform="translate(-995.995 -771.219)"/>
            <path id="Caminho_1775" d="M1070.434 792.56a15.535 15.535 0 1 0 7.25 29.257 3.552 3.552 0 0 0 .854-5.655 3.506 3.506 0 0 0-4.143-.632 8.42 8.42 0 0 1-11.775-4.453h19.76a3.547 3.547 0 0 0 3.547-3.713 15.534 15.534 0 0 0-15.5-14.8zm7.866 12.521h-15.726a8.415 8.415 0 0 1 15.726 0z" class="cls-1" data-name="Caminho 1775" transform="translate(-1024.382 -781.509)"/>
            <path id="Caminho_1776" d="M1177.988 871.135V859.37h.911v11.765zm-9.6-9.662h.911v.911h-.911zm0 9.662v-7.845h.911v7.845zm-4.546-11.765v3.014h-.906v.906h.906v5.846a2 2 0 0 0 2 2h.73v-.906h-.73a1.093 1.093 0 0 1-1.087-1.093v-5.847h1.818v-.906h-1.818v-3.014zm27.382 0v3.014h-.911v.906h.911v5.846a2 2 0 0 0 2 2h.73v-.906h-.73a1.093 1.093 0 0 1-1.087-1.093v-5.847h1.818v-.906h-1.818v-3.014zm-17.28 3.92h-.621a2.227 2.227 0 0 0-2.221 2.221v3.4a2.227 2.227 0 0 0 2.221 2.221h.606a2.227 2.227 0 0 0 2.221-2.221h-.911a1.315 1.315 0 0 1-1.31 1.315h-.606a1.315 1.315 0 0 1-1.31-1.315v-3.4a1.315 1.315 0 0 1 1.31-1.31h.606a1.315 1.315 0 0 1 1.31 1.31h.911a2.227 2.227 0 0 0-2.221-2.221zm13.241 0h-.606a2.227 2.227 0 0 0-2.221 2.221v3.4a2.227 2.227 0 0 0 2.221 2.221h.606a2.227 2.227 0 0 0 2.221-2.221h-.911a1.315 1.315 0 0 1-1.31 1.315h-.606a1.315 1.315 0 0 1-1.31-1.315v-1.551h4.143v-1.869a2.227 2.227 0 0 0-2.222-2.221zm-1.916 3.185v-.963a1.315 1.315 0 0 1 1.31-1.31h.606a1.315 1.315 0 0 1 1.31 1.31v.963zm-6.214.74l3.205-3.925h1.175l-3.21 3.925 3.2 3.92h-1.17z" class="cls-1" data-name="Caminho 1776" transform="translate(-1076.492 -813.724)"/>
        </g>
    </g>
</svg>
